<svg width="196" height="68" viewBox="0 0 196 68" fill="none" xmlns="http://www.w3.org/2000/svg">
<rect x="0.5" y="0.5" width="195" height="67" rx="33.5" fill="white" stroke="url(#paint0_linear_105_1961)"/>
<path d="M54.9295 42.98C53.4415 42.98 52.0975 42.644 50.8975 41.972C49.7095 41.312 48.7735 40.4 48.0895 39.236C47.4175 38.06 47.0815 36.74 47.0815 35.276C47.0815 33.812 47.4175 32.498 48.0895 31.334C48.7735 30.158 49.7095 29.24 50.8975 28.58C52.0975 27.908 53.4415 27.572 54.9295 27.572C56.2375 27.572 57.4075 27.812 58.4395 28.292C59.4835 28.772 60.3295 29.432 60.9775 30.272C61.6255 31.112 62.0515 32.054 62.2555 33.098H58.9435C58.7635 32.378 58.3135 31.778 57.5935 31.298C56.8855 30.818 56.0215 30.578 55.0015 30.578C54.1255 30.578 53.3335 30.782 52.6255 31.19C51.9175 31.586 51.3595 32.144 50.9515 32.864C50.5555 33.572 50.3575 34.376 50.3575 35.276C50.3575 36.164 50.5555 36.968 50.9515 37.688C51.3595 38.408 51.9175 38.972 52.6255 39.38C53.3335 39.776 54.1255 39.974 55.0015 39.974C55.6735 39.974 56.3035 39.842 56.8915 39.578C57.4915 39.314 57.9835 38.972 58.3675 38.552C58.7635 38.132 59.0035 37.7 59.0875 37.256H62.3995C62.2435 38.252 61.8295 39.188 61.1575 40.064C60.4855 40.94 59.6035 41.642 58.5115 42.17C57.4315 42.71 56.2375 42.98 54.9295 42.98ZM71.2001 42.98C69.7001 42.98 68.3441 42.644 67.1321 41.972C65.9321 41.312 64.9901 40.4 64.3061 39.236C63.6221 38.06 63.2801 36.74 63.2801 35.276C63.2801 33.812 63.6221 32.498 64.3061 31.334C64.9901 30.158 65.9321 29.24 67.1321 28.58C68.3441 27.908 69.7001 27.572 71.2001 27.572C72.7001 27.572 74.0501 27.908 75.2501 28.58C76.4621 29.24 77.4101 30.158 78.0941 31.334C78.7781 32.498 79.1201 33.812 79.1201 35.276C79.1201 36.74 78.7781 38.06 78.0941 39.236C77.4101 40.4 76.4621 41.312 75.2501 41.972C74.0501 42.644 72.7001 42.98 71.2001 42.98ZM71.2001 40.028C72.0761 40.028 72.8681 39.824 73.5761 39.416C74.2841 39.008 74.8361 38.444 75.2321 37.724C75.6401 36.992 75.8441 36.176 75.8441 35.276C75.8441 34.364 75.6401 33.548 75.2321 32.828C74.8361 32.108 74.2841 31.544 73.5761 31.136C72.8681 30.728 72.0761 30.524 71.2001 30.524C70.3241 30.524 69.5321 30.728 68.8241 31.136C68.1161 31.544 67.5581 32.108 67.1501 32.828C66.7541 33.548 66.5561 34.364 66.5561 35.276C66.5561 36.176 66.7541 36.992 67.1501 37.724C67.5581 38.444 68.1161 39.008 68.8241 39.416C69.5321 39.824 70.3241 40.028 71.2001 40.028ZM80.7068 27.95H83.4428L90.7688 36.77V27.77H94.0448V42.44H91.3088L83.9828 33.62V42.62H80.7068V27.95ZM108.261 30.848H103.491V42.62H100.215V30.848H95.4446V27.95H108.261V30.848ZM116.514 39.776H110.826L109.8 42.62H106.416L112.104 27.95H115.506L121.194 42.62H117.54L116.514 39.776ZM115.506 36.932L113.67 31.82L111.834 36.932H115.506ZM128.786 42.98C127.298 42.98 125.954 42.644 124.754 41.972C123.566 41.312 122.63 40.4 121.946 39.236C121.274 38.06 120.938 36.74 120.938 35.276C120.938 33.812 121.274 32.498 121.946 31.334C122.63 30.158 123.566 29.24 124.754 28.58C125.954 27.908 127.298 27.572 128.786 27.572C130.094 27.572 131.264 27.812 132.296 28.292C133.34 28.772 134.186 29.432 134.834 30.272C135.482 31.112 135.908 32.054 136.112 33.098H132.8C132.62 32.378 132.17 31.778 131.45 31.298C130.742 30.818 129.878 30.578 128.858 30.578C127.982 30.578 127.19 30.782 126.482 31.19C125.774 31.586 125.216 32.144 124.808 32.864C124.412 33.572 124.214 34.376 124.214 35.276C124.214 36.164 124.412 36.968 124.808 37.688C125.216 38.408 125.774 38.972 126.482 39.38C127.19 39.776 127.982 39.974 128.858 39.974C129.53 39.974 130.16 39.842 130.748 39.578C131.348 39.314 131.84 38.972 132.224 38.552C132.62 38.132 132.86 37.7 132.944 37.256H136.256C136.1 38.252 135.686 39.188 135.014 40.064C134.342 40.94 133.46 41.642 132.368 42.17C131.288 42.71 130.094 42.98 128.786 42.98ZM149.104 30.848H144.334V42.62H141.058V30.848H136.288V27.95H149.104V30.848Z" fill="black"/>
<defs>
<linearGradient id="paint0_linear_105_1961" x1="9.51224e-07" y1="32" x2="198" y2="32.5" gradientUnits="userSpaceOnUse">
<stop stop-color="#15B1E4"/>
<stop offset="1" stop-color="#B800FF"/>
</linearGradient>
</defs>
</svg>
