<svg width="196" height="68" viewBox="0 0 196 68" fill="none" xmlns="http://www.w3.org/2000/svg">
<rect x="0.5" y="0.5" width="195" height="67" rx="33.5" fill="white" stroke="url(#paint0_linear_209_337)"/>
<path d="M78.228 25.68V31.836H65.088V25.68H78.228ZM76.446 30.36V27.156H66.87V30.36H76.446ZM63.99 33.384H79.344V34.896H72.558V37.542H70.758V34.896H63.99V33.384ZM66.87 36.21V39.162H78.57V40.692H65.07V36.21H66.87ZM93.5625 40.872V25.5H95.3445V40.872H93.5625ZM86.2185 35.508C83.4465 35.508 81.4665 33.528 81.4665 30.666C81.4665 27.804 83.4465 25.824 86.2185 25.824C88.9725 25.824 90.9705 27.804 90.9705 30.666C90.9705 33.528 88.9725 35.508 86.2185 35.508ZM86.2185 33.888C88.0365 33.888 89.2245 32.502 89.2245 30.666C89.2245 28.83 88.0365 27.426 86.2185 27.426C84.3825 27.426 83.2125 28.83 83.2125 30.666C83.2125 32.502 84.3825 33.888 86.2185 33.888ZM80.9445 39.954V38.28H87.2265C89.3325 38.28 91.2225 38.046 92.2665 37.56V39.216C91.2405 39.684 89.3325 39.954 87.1185 39.954H80.9445ZM104.127 25.464V27.93H108.213V29.514H98.2409V27.93H102.309V25.464H104.127ZM113.973 31.728V33.438H111.813V40.872H110.031V25.5H111.813V31.728H113.973ZM103.227 30.738C105.729 30.738 107.493 32.61 107.493 35.436C107.493 38.262 105.729 40.134 103.227 40.134C100.725 40.134 98.9429 38.262 98.9429 35.436C98.9429 32.61 100.725 30.738 103.227 30.738ZM103.227 38.586C104.649 38.586 105.765 37.398 105.765 35.436C105.765 33.474 104.649 32.286 103.227 32.286C101.787 32.286 100.671 33.474 100.671 35.436C100.671 37.398 101.787 38.586 103.227 38.586ZM127.417 40.872V25.5H129.199V40.872H127.417ZM115.573 39.918V38.226C119.767 38.208 122.287 34.95 122.287 29.802V27.696H115.573V26.058H124.105V29.766C124.105 35.922 120.829 39.918 115.573 39.918Z" fill="black"/>
<defs>
<linearGradient id="paint0_linear_209_337" x1="9.51224e-07" y1="32" x2="198" y2="32.5" gradientUnits="userSpaceOnUse">
<stop stop-color="#15B1E4"/>
<stop offset="1" stop-color="#B800FF"/>
</linearGradient>
</defs>
</svg>
