<svg width="122" height="48" viewBox="0 0 122 48" fill="none" xmlns="http://www.w3.org/2000/svg">
<rect x="0.5" y="0.5" width="121" height="47" rx="23.5" fill="white" stroke="url(#paint0_linear_90_1623)"/>
<path d="M46.8304 17.64V22.428H36.6104V17.64H46.8304ZM45.4444 21.28V18.788H37.9964V21.28H45.4444ZM35.7564 23.632H47.6984V24.808H42.4204V26.866H41.0204V24.808H35.7564V23.632ZM37.9964 25.83V28.126H47.0964V29.316H36.5964V25.83H37.9964ZM58.7572 29.456V17.5H60.1432V29.456H58.7572ZM53.0452 25.284C50.8892 25.284 49.3492 23.744 49.3492 21.518C49.3492 19.292 50.8892 17.752 53.0452 17.752C55.1872 17.752 56.7412 19.292 56.7412 21.518C56.7412 23.744 55.1872 25.284 53.0452 25.284ZM53.0452 24.024C54.4592 24.024 55.3832 22.946 55.3832 21.518C55.3832 20.09 54.4592 18.998 53.0452 18.998C51.6172 18.998 50.7072 20.09 50.7072 21.518C50.7072 22.946 51.6172 24.024 53.0452 24.024ZM48.9432 28.742V27.44H53.8292C55.4672 27.44 56.9372 27.258 57.7492 26.88V28.168C56.9512 28.532 55.4672 28.742 53.7452 28.742H48.9432ZM66.974 17.472V19.39H70.152V20.622H62.396V19.39H65.56V17.472H66.974ZM74.632 22.344V23.674H72.952V29.456H71.566V17.5H72.952V22.344H74.632ZM66.274 21.574C68.22 21.574 69.592 23.03 69.592 25.228C69.592 27.426 68.22 28.882 66.274 28.882C64.328 28.882 62.942 27.426 62.942 25.228C62.942 23.03 64.328 21.574 66.274 21.574ZM66.274 27.678C67.38 27.678 68.248 26.754 68.248 25.228C68.248 23.702 67.38 22.778 66.274 22.778C65.154 22.778 64.286 23.702 64.286 25.228C64.286 26.754 65.154 27.678 66.274 27.678ZM85.0888 29.456V17.5H86.4748V29.456H85.0888ZM75.8768 28.714V27.398C79.1388 27.384 81.0988 24.85 81.0988 20.846V19.208H75.8768V17.934H82.5128V20.818C82.5128 25.606 79.9648 28.714 75.8768 28.714Z" fill="black"/>
<defs>
<linearGradient id="paint0_linear_90_1623" x1="5.92089e-07" y1="22.5882" x2="123.245" y2="22.8627" gradientUnits="userSpaceOnUse">
<stop stop-color="#15B1E4"/>
<stop offset="1" stop-color="#B800FF"/>
</linearGradient>
</defs>
</svg>
