<svg width="42" height="14" viewBox="0 0 42 14" fill="none" xmlns="http://www.w3.org/2000/svg">
<g clip-path="url(#clip0_105_2110)">
<path d="M23.9327 13.9995C21.8097 13.9995 20.082 12.3815 20.082 10.3932C20.082 8.40487 21.8097 6.78613 23.9327 6.78613C26.0557 6.78613 27.7834 8.40421 27.7834 10.3932C27.7834 12.3821 26.0557 13.9995 23.9327 13.9995ZM23.9327 8.51874C22.8293 8.51874 21.932 9.35974 21.932 10.3932C21.932 11.4266 22.83 12.2669 23.9327 12.2669C25.0355 12.2669 25.9334 11.4259 25.9334 10.3932C25.9334 9.3604 25.0355 8.51874 23.9327 8.51874Z" fill="#2EB1F7"/>
<path d="M35.4835 13.9995C33.3605 13.9995 31.6328 12.3815 31.6328 10.3932C31.6328 8.40487 33.3605 6.78613 35.4835 6.78613C37.6065 6.78613 39.3342 8.40421 39.3342 10.3932C39.3342 12.3821 37.6065 13.9995 35.4835 13.9995ZM35.4835 8.51874C34.3801 8.51874 33.4828 9.35974 33.4828 10.3932C33.4828 11.4266 34.3808 12.2669 35.4835 12.2669C36.5862 12.2669 37.4842 11.4259 37.4842 10.3932C37.4842 9.3604 36.5862 8.51874 35.4835 8.51874Z" fill="#2EB1F7"/>
<path d="M8.60576 0.0322266H6.76146L0 0.0328924V6.33006L0.904373 6.34671C0.912904 6.34738 0.936367 6.34738 0.974049 6.34738C1.42126 6.34738 3.81657 6.29677 5.99147 5.25667L5.15251 3.71717C3.97725 4.27851 2.68397 4.49092 1.84501 4.57082V1.7615H6.76146V7.32821C6.17846 6.99527 5.4952 6.8035 4.76502 6.8035C2.64628 6.8035 0.922858 8.41691 0.922858 10.4019C0.922858 12.3869 2.647 13.9996 4.76502 13.9996C6.88304 13.9996 8.60647 12.3862 8.60647 10.4019C8.60647 10.3653 8.60576 10.3293 8.60434 10.2927H8.60647V0.0322266H8.60576ZM4.76431 12.271C3.66299 12.271 2.76786 11.4333 2.76786 10.4019C2.76786 9.37044 3.6637 8.53211 4.76431 8.53211C5.86491 8.53211 6.76004 9.37111 6.76004 10.4019C6.76004 11.4327 5.86562 12.271 4.76431 12.271Z" fill="url(#paint0_linear_105_2110)"/>
<path d="M18.6285 10.2927H18.6292V0.0322266H16.7856L10.0234 0.0328924V6.33006L10.9278 6.34671C10.9371 6.34738 10.9605 6.34738 10.9989 6.34738C11.4461 6.34738 13.8414 6.29677 16.0163 5.25667L15.1767 3.71717C14.0014 4.27851 12.7095 4.49092 11.8692 4.57082V1.7615H16.7863V7.32821C16.2033 6.99527 15.5193 6.8035 14.7885 6.8035C12.6697 6.8035 10.947 8.41691 10.947 10.4019C10.947 12.3869 12.6697 13.9996 14.7885 13.9996C16.9072 13.9996 18.6306 12.3862 18.6306 10.4019C18.6306 10.3653 18.6299 10.3293 18.6285 10.2927ZM14.7885 12.271C13.6871 12.271 12.7927 11.4333 12.7927 10.4019C12.7927 9.37044 13.6871 8.53211 14.7885 8.53211C15.8898 8.53211 16.7849 9.37111 16.7849 10.4019C16.7849 11.4327 15.8891 12.271 14.7885 12.271Z" fill="url(#paint1_linear_105_2110)"/>
<path d="M34.6385 5.23643C33.1127 5.96623 31.4782 6.21061 30.4828 6.29051V14H28.6328V0H30.4828V4.54925C31.3232 4.46868 32.62 4.25627 33.7974 3.6936L34.6378 5.23643H34.6385Z" fill="#2EB1F7"/>
<path d="M42.0023 0H40.1523V13.9993H42.0023V0Z" fill="#2EB1F7"/>
</g>
<defs>
<linearGradient id="paint0_linear_105_2110" x1="-3.75187" y1="-2.01467" x2="17.8752" y2="21.0769" gradientUnits="userSpaceOnUse">
<stop stop-color="#15B1E4"/>
<stop offset="1" stop-color="#B800FF"/>
</linearGradient>
<linearGradient id="paint1_linear_105_2110" x1="0.907903" y1="-7.03869" x2="21.6094" y2="15.0652" gradientUnits="userSpaceOnUse">
<stop stop-color="#15B1E4"/>
<stop offset="1" stop-color="#B800FF"/>
</linearGradient>
<clipPath id="clip0_105_2110">
<rect width="42" height="14" fill="white"/>
</clipPath>
</defs>
</svg>
