<svg width="348" height="124" viewBox="0 0 348 124" fill="none" xmlns="http://www.w3.org/2000/svg">
<g clip-path="url(#clip0_83_920)">
<path d="M198.31 123.994C180.719 123.994 166.404 109.663 166.404 92.0521C166.404 74.4414 180.719 60.104 198.31 60.104C215.901 60.104 230.216 74.4355 230.216 92.0521C230.216 109.669 215.901 123.994 198.31 123.994ZM198.31 75.4499C189.167 75.4499 181.733 82.8988 181.733 92.0521C181.733 101.205 189.173 108.648 198.31 108.648C207.447 108.648 214.887 101.199 214.887 92.0521C214.887 82.9047 207.447 75.4499 198.31 75.4499Z" fill="#2EB1F7"/>
<path d="M294.021 123.994C276.43 123.994 262.115 109.663 262.115 92.0521C262.115 74.4414 276.43 60.104 294.021 60.104C311.612 60.104 325.927 74.4355 325.927 92.0521C325.927 109.669 311.612 123.994 294.021 123.994ZM294.021 75.4499C284.878 75.4499 277.444 82.8988 277.444 92.0521C277.444 101.205 284.884 108.648 294.021 108.648C303.158 108.648 310.598 101.199 310.598 92.0521C310.598 82.9047 303.158 75.4499 294.021 75.4499Z" fill="#2EB1F7"/>
<path d="M71.3049 0.289062H56.0236L0 0.29496V56.0699L7.49337 56.2173C7.56406 56.2232 7.75847 56.2232 8.07069 56.2232C11.7761 56.2232 31.623 55.775 49.6436 46.5627L42.6922 32.9272C32.9543 37.899 22.2386 39.7803 15.2872 40.4881V15.6055H56.0236V64.9106C51.1929 61.9617 45.5317 60.2632 39.4816 60.2632C21.9264 60.2632 7.64654 74.5534 7.64654 92.1346C7.64654 109.716 21.9323 124 39.4816 124C57.0309 124 71.3108 109.71 71.3108 92.1346C71.3108 91.8102 71.3049 91.4917 71.2931 91.1674H71.3108V0.289062H71.3049ZM39.4757 108.69C30.3505 108.69 22.9337 101.27 22.9337 92.1346C22.9337 82.999 30.3564 75.5737 39.4757 75.5737C48.595 75.5737 56.0118 83.0049 56.0118 92.1346C56.0118 101.264 48.6009 108.69 39.4757 108.69Z" fill="url(#paint0_linear_83_920)"/>
<path d="M154.361 91.1674H154.367V0.289062H139.092L83.0625 0.29496V56.0699L90.5559 56.2173C90.6325 56.2232 90.8269 56.2232 91.145 56.2232C94.8504 56.2232 114.697 55.775 132.718 46.5627L125.761 32.9272C116.023 37.899 105.319 39.7803 98.3556 40.4881V15.6055H139.098V64.9106C134.267 61.9617 128.6 60.2632 122.544 60.2632C104.989 60.2632 90.7149 74.5534 90.7149 92.1346C90.7149 109.716 104.989 124 122.544 124C140.099 124 154.379 109.71 154.379 92.1346C154.379 91.8102 154.373 91.4917 154.361 91.1674ZM122.544 108.69C113.419 108.69 106.008 101.27 106.008 92.1346C106.008 82.999 113.419 75.5737 122.544 75.5737C131.669 75.5737 139.086 83.0049 139.086 92.1346C139.086 101.264 131.663 108.69 122.544 108.69Z" fill="url(#paint1_linear_83_920)"/>
<path d="M286.992 46.3798C274.35 52.8438 260.806 55.0082 252.559 55.716V124H237.23V0H252.559V40.2934C259.522 39.5797 270.267 37.6984 280.023 32.7148L286.986 46.3798H286.992Z" fill="#2EB1F7"/>
<path d="M348.006 0H332.678V123.994H348.006V0Z" fill="#2EB1F7"/>
</g>
<defs>
<linearGradient id="paint0_linear_83_920" x1="-31.0869" y1="-17.8406" x2="160.879" y2="173.9" gradientUnits="userSpaceOnUse">
<stop stop-color="#15B1E4"/>
<stop offset="1" stop-color="#B800FF"/>
</linearGradient>
<linearGradient id="paint1_linear_83_920" x1="7.53378" y1="-62.339" x2="191.284" y2="121.201" gradientUnits="userSpaceOnUse">
<stop stop-color="#15B1E4"/>
<stop offset="1" stop-color="#B800FF"/>
</linearGradient>
<clipPath id="clip0_83_920">
<rect width="348" height="124" fill="white"/>
</clipPath>
</defs>
</svg>
