<svg width="118" height="38" viewBox="0 0 118 38" fill="none" xmlns="http://www.w3.org/2000/svg">
<g clip-path="url(#clip0_83_883)">
<path d="M106.731 2.82L97.7909 5.99L89.8809 2.81L98.7609 0L106.731 2.82Z" fill="black"/>
<path d="M92.67 3.39002L92.8 4.37002L93.03 5.85002L92.16 5.86002H91.25L91.92 4.34002L92.39 3.27002L92.67 3.39002Z" fill="black"/>
<path d="M20.4399 21.92L0.539883 22.82L2.90988 7L19.8099 7.05L18.9799 12.6L8.41988 12.57L7.70988 17.32L21.2499 16.56L20.4499 21.92H20.4399ZM4.59988 37.28C1.03988 37.27 -0.300117 34.31 0.0498831 31.94L0.379883 29.73C0.759883 27.16 2.93988 24.54 6.49988 24.55L21.3499 24.59C24.8199 24.59 26.1599 27.14 25.7599 29.8L25.4299 31.98C25.0399 34.58 22.8799 37.33 19.4399 37.32L4.58988 37.28H4.59988ZM17.7299 32.02C19.3299 32.02 19.6499 29.87 18.0499 29.87L8.05988 29.84C6.45988 29.84 6.13988 31.99 7.73988 31.99L17.7299 32.02ZM26.3799 23.66L20.0399 23.64L22.5199 7.04L28.8599 7.06L26.3799 23.66Z" fill="black"/>
<path d="M49.2094 22L29.3094 22.9L31.6794 7.02002L48.5794 7.07002L47.7394 12.68L37.1794 12.65L36.4694 17.4L50.0094 16.64L49.2094 22ZM33.3694 37.36C29.8094 37.35 28.4694 34.39 28.8194 32.02L29.1494 29.81C29.5294 27.24 31.7094 24.62 35.2694 24.63L50.1194 24.67C53.5894 24.67 54.9294 27.22 54.5294 29.88L54.1994 32.06C53.8094 34.66 51.6494 37.41 48.2094 37.4L33.3594 37.36H33.3694ZM46.4994 32.1C48.0994 32.1 48.4194 29.95 46.8194 29.95L36.8294 29.92C35.2294 29.92 34.9094 32.07 36.5094 32.07L46.4994 32.1ZM55.1494 23.74L48.8094 23.72L51.2994 7.03002L57.6394 7.05002L55.1494 23.74Z" fill="black"/>
<path d="M82.3503 37.4602L76.8003 37.4402L78.9503 23.0302H77.6803L75.5303 37.4402L70.1903 37.4202L70.7603 33.5902L56.0703 34.2902L60.1503 6.99023L73.3703 7.03023L72.5503 12.4902L65.3703 12.4702L62.9403 28.7602L71.5603 28.2702L74.7403 7.02023L80.0803 7.04023L78.5103 17.5702H79.7803L81.3603 7.03023L86.9103 7.05023L82.3703 37.4602H82.3503Z" fill="black"/>
<path d="M100.849 7.21L106.759 7.23L105.909 12.89H104.939C104.929 13.19 104.909 13.49 104.869 13.75L104.339 17.28C103.859 20.47 101.009 23.63 96.5394 23.62H93.5394C89.3494 23.6 86.9194 20.4 87.3894 17.24L87.9194 13.71C87.9594 13.41 88.0394 13.14 88.1094 12.85H87.1394L87.9894 7.19L93.9694 7.21L100.849 7.23V7.21ZM110.989 37.57L104.419 37.55L105.449 30.69L86.3594 30.64L87.2094 24.98L112.869 25.05L110.999 37.57H110.989ZM98.0394 15.29C98.2694 13.76 97.4094 13.19 96.4794 13.19C95.4794 13.19 94.5194 13.75 94.2894 15.28L94.2194 15.75C94.0194 17.08 94.7794 17.85 95.7494 17.85C96.7794 17.85 97.7594 17.19 97.9694 15.76L98.0394 15.29ZM116.999 18.27H113.869L113.009 23.98L106.439 23.96L109.309 4.75L115.879 4.77L114.709 12.6H117.839L116.989 18.27H116.999Z" fill="black"/>
</g>
<defs>
<clipPath id="clip0_83_883">
<rect width="117.85" height="37.57" fill="white"/>
</clipPath>
</defs>
</svg>
