<svg width="153" height="124" viewBox="0 0 153 124" fill="none" xmlns="http://www.w3.org/2000/svg">
<g clip-path="url(#clip0_105_1838)">
<path d="M73.8136 90.1641V0H57.9991H0V55.3435L7.75518 55.4894C7.83121 55.4894 8.03396 55.4894 8.36343 55.4894C12.203 55.4894 32.7441 55.0395 51.3971 45.9088L44.1994 32.3769C34.1253 37.3131 23.0374 39.1733 15.8272 39.8784V15.1976H57.9991V64.1094C53.0064 61.1793 47.1266 59.5015 40.8667 59.5015C22.6953 59.5015 7.91991 73.6778 7.91991 91.1246C7.91991 108.571 22.6953 122.736 40.8667 122.736C59.0382 122.736 73.8262 108.559 73.8262 91.1246C73.8262 90.8085 73.8262 90.4924 73.8136 90.1641ZM40.8794 107.55C31.4389 107.55 23.7597 100.182 23.7597 91.1246C23.7597 82.0669 31.4389 74.6869 40.8794 74.6869C50.3199 74.6869 58.0118 82.0547 58.0118 91.1246C58.0118 100.195 50.3326 107.55 40.8794 107.55ZM84.4833 66.9544H151.784V82.1398C151.784 82.2128 151.784 82.4073 151.784 82.7112C151.784 86.3951 151.327 106.116 141.798 124L126.82 116.438C128.493 112.45 134.322 104.632 135.221 82.1277H84.496V66.9423L84.4833 66.9544ZM153.013 47.3313V62.5167H83.5582V47.3313H108.256V35.8663H123.943V47.3313H153.013ZM135.956 31.2705H85.4083V19.2584H135.956V12.0122H85.4083V0H151.784V42.8815H135.956V31.2705Z" fill="url(#paint0_linear_105_1838)"/>
</g>
<defs>
<linearGradient id="paint0_linear_105_1838" x1="32.1232" y1="19.9878" x2="151.881" y2="111.538" gradientUnits="userSpaceOnUse">
<stop offset="0.15" stop-color="#2EB1F7"/>
<stop offset="0.76" stop-color="#9056FF"/>
</linearGradient>
<clipPath id="clip0_105_1838">
<rect width="153" height="124" fill="white"/>
</clipPath>
</defs>
</svg>
