<svg width="18" height="14" viewBox="0 0 18 14" fill="none" xmlns="http://www.w3.org/2000/svg">
<g clip-path="url(#clip0_105_2117)">
<path d="M8.68395 10.1798V0H6.82342H0V6.24846L0.912374 6.26493C0.921319 6.26493 0.945171 6.26493 0.983932 6.26493C1.43565 6.26493 3.85224 6.21414 6.04671 5.18325L5.19993 3.65546C4.01474 4.21277 2.71029 4.42279 1.86202 4.5024V1.71585H6.82342V7.23816C6.23604 6.90734 5.54431 6.71791 4.80785 6.71791C2.67003 6.71791 0.931754 8.31846 0.931754 10.2883C0.931754 12.2581 2.67003 13.8572 4.80785 13.8572C6.94567 13.8572 8.68544 12.2567 8.68544 10.2883C8.68544 10.2526 8.68544 10.2169 8.68395 10.1798ZM4.80934 12.1428C3.69869 12.1428 2.79526 11.3109 2.79526 10.2883C2.79526 9.26561 3.69869 8.4324 4.80934 8.4324C5.91999 8.4324 6.82491 9.26424 6.82491 10.2883C6.82491 11.3123 5.92148 12.1428 4.80934 12.1428ZM9.93921 7.55937H17.8569V9.27385C17.8569 9.28209 17.8569 9.30405 17.8569 9.33837C17.8569 9.75429 17.8032 11.9808 16.6821 14L14.92 13.1462C15.1168 12.696 15.8026 11.8133 15.9084 9.27248H9.9407V7.558L9.93921 7.55937ZM18.0015 5.34386V7.05834H9.83038V5.34386H12.736V4.04942H14.5816V5.34386H18.0015ZM15.9949 3.53054H10.048V2.17433H15.9949V1.35621H10.048V0H17.8569V4.84146H15.9949V3.53054Z" fill="url(#paint0_linear_105_2117)"/>
</g>
<defs>
<linearGradient id="paint0_linear_105_2117" x1="3.7792" y1="2.25669" x2="17.4362" y2="13.1356" gradientUnits="userSpaceOnUse">
<stop offset="0.15" stop-color="#2EB1F7"/>
<stop offset="0.76" stop-color="#9056FF"/>
</linearGradient>
<clipPath id="clip0_105_2117">
<rect width="18" height="14" fill="white"/>
</clipPath>
</defs>
</svg>
