<svg width="664" height="74" viewBox="0 0 664 74" fill="none" xmlns="http://www.w3.org/2000/svg">
<path d="M0.68 3.875H21.22C26.9833 3.875 32.01 5.00166 36.3 7.255C40.59 9.465 43.8833 12.585 46.18 16.615C48.4767 20.6017 49.625 25.195 49.625 30.395C49.625 35.595 48.4767 40.21 46.18 44.24C43.8833 48.2267 40.59 51.325 36.3 53.535C32.01 55.745 26.9833 56.85 21.22 56.85H0.68V3.875ZM21.415 46.385C26.5283 46.385 30.5367 44.9983 33.44 42.225C36.3433 39.4083 37.795 35.465 37.795 30.395C37.795 25.325 36.3433 21.3817 33.44 18.565C30.5367 15.7483 26.5283 14.34 21.415 14.34H12.51V46.385H21.415ZM58.2898 0.364997C60.3265 0.364997 62.0165 1.03666 63.3598 2.38C64.7031 3.72333 65.3748 5.41333 65.3748 7.45C65.3748 9.48667 64.7031 11.1767 63.3598 12.52C62.0165 13.8633 60.3265 14.535 58.2898 14.535C56.2531 14.535 54.5631 13.8633 53.2198 12.52C51.8765 11.1767 51.2048 9.48667 51.2048 7.45C51.2048 5.41333 51.8765 3.72333 53.2198 2.38C54.5631 1.03666 56.2531 0.364997 58.2898 0.364997ZM64.0748 56.98H52.5048V18.76H64.0748V56.98ZM68.8538 18.76H80.4238V22.66C82.8072 19.4533 86.3605 17.85 91.0838 17.85C94.0305 17.85 96.6305 18.5433 98.8838 19.93C101.137 21.2733 102.87 23.2233 104.084 25.78C105.34 28.3367 105.969 31.3483 105.969 34.815V56.85H94.3988V36.765C94.3988 33.8617 93.8138 31.6517 92.6438 30.135C91.5172 28.575 89.8705 27.795 87.7038 27.795C85.4505 27.795 83.6738 28.64 82.3738 30.33C81.0738 32.02 80.4238 34.3383 80.4238 37.285V56.85H68.8538V18.76ZM129.33 73.62C125.69 73.62 122.527 72.9917 119.84 71.735C117.197 70.5217 115.095 68.875 113.535 66.795C111.975 64.715 110.979 62.3967 110.545 59.84H122.245C122.895 62.5267 125.257 63.87 129.33 63.87C131.757 63.87 133.707 63.155 135.18 61.725C136.654 60.295 137.39 58.3883 137.39 56.005V51.975C135.007 55.1817 131.367 56.785 126.47 56.785C122.874 56.785 119.667 55.9617 116.85 54.315C114.034 52.6683 111.845 50.3717 110.285 47.425C108.725 44.4783 107.945 41.1633 107.945 37.48C107.945 33.71 108.725 30.3517 110.285 27.405C111.845 24.415 114.034 22.075 116.85 20.385C119.667 18.695 122.874 17.85 126.47 17.85C131.367 17.85 135.007 19.4533 137.39 22.66V18.76H148.96V56.135C148.96 59.515 148.115 62.5267 146.425 65.17C144.735 67.8567 142.395 69.9367 139.405 71.41C136.459 72.8833 133.1 73.62 129.33 73.62ZM128.29 47.23C131.107 47.23 133.36 46.32 135.05 44.5C136.74 42.68 137.585 40.34 137.585 37.48C137.585 34.62 136.74 32.28 135.05 30.46C133.36 28.64 131.107 27.73 128.29 27.73C125.56 27.73 123.372 28.64 121.725 30.46C120.079 32.28 119.255 34.62 119.255 37.48C119.255 40.34 120.079 42.68 121.725 44.5C123.372 46.32 125.56 47.23 128.29 47.23ZM154.118 3.875H174.658C180.421 3.875 185.448 5.00166 189.738 7.255C194.028 9.465 197.321 12.585 199.618 16.615C201.915 20.6017 203.063 25.195 203.063 30.395C203.063 35.595 201.915 40.21 199.618 44.24C197.321 48.2267 194.028 51.325 189.738 53.535C185.448 55.745 180.421 56.85 174.658 56.85H154.118V3.875ZM174.853 46.385C179.966 46.385 183.975 44.9983 186.878 42.225C189.781 39.4083 191.233 35.465 191.233 30.395C191.233 25.325 189.781 21.3817 186.878 18.565C183.975 15.7483 179.966 14.34 174.853 14.34H165.948V46.385H174.853ZM211.728 0.364997C213.765 0.364997 215.455 1.03666 216.798 2.38C218.141 3.72333 218.813 5.41333 218.813 7.45C218.813 9.48667 218.141 11.1767 216.798 12.52C215.455 13.8633 213.765 14.535 211.728 14.535C209.691 14.535 208.001 13.8633 206.658 12.52C205.315 11.1767 204.643 9.48667 204.643 7.45C204.643 5.41333 205.315 3.72333 206.658 2.38C208.001 1.03666 209.691 0.364997 211.728 0.364997ZM217.513 56.98H205.943V18.76H217.513V56.98ZM222.292 18.76H233.862V22.66C236.245 19.4533 239.799 17.85 244.522 17.85C247.469 17.85 250.069 18.5433 252.322 19.93C254.575 21.2733 256.309 23.2233 257.522 25.78C258.779 28.3367 259.407 31.3483 259.407 34.815V56.85H247.837V36.765C247.837 33.8617 247.252 31.6517 246.082 30.135C244.955 28.575 243.309 27.795 241.142 27.795C238.889 27.795 237.112 28.64 235.812 30.33C234.512 32.02 233.862 34.3383 233.862 37.285V56.85H222.292V18.76ZM282.768 73.62C279.128 73.62 275.965 72.9917 273.278 71.735C270.635 70.5217 268.533 68.875 266.973 66.795C265.413 64.715 264.417 62.3967 263.983 59.84H275.683C276.333 62.5267 278.695 63.87 282.768 63.87C285.195 63.87 287.145 63.155 288.618 61.725C290.092 60.295 290.828 58.3883 290.828 56.005V51.975C288.445 55.1817 284.805 56.785 279.908 56.785C276.312 56.785 273.105 55.9617 270.288 54.315C267.472 52.6683 265.283 50.3717 263.723 47.425C262.163 44.4783 261.383 41.1633 261.383 37.48C261.383 33.71 262.163 30.3517 263.723 27.405C265.283 24.415 267.472 22.075 270.288 20.385C273.105 18.695 276.312 17.85 279.908 17.85C284.805 17.85 288.445 19.4533 290.828 22.66V18.76H302.398V56.135C302.398 59.515 301.553 62.5267 299.863 65.17C298.173 67.8567 295.833 69.9367 292.843 71.41C289.897 72.8833 286.538 73.62 282.768 73.62ZM281.728 47.23C284.545 47.23 286.798 46.32 288.488 44.5C290.178 42.68 291.023 40.34 291.023 37.48C291.023 34.62 290.178 32.28 288.488 30.46C286.798 28.64 284.545 27.73 281.728 27.73C278.998 27.73 276.81 28.64 275.163 30.46C273.517 32.28 272.693 34.62 272.693 37.48C272.693 40.34 273.517 42.68 275.163 44.5C276.81 46.32 278.998 47.23 281.728 47.23ZM321.224 3.875H333.054V33.385C333.054 37.6317 334.159 41.055 336.369 43.655C338.622 46.2117 341.656 47.49 345.469 47.49C349.282 47.49 352.294 46.2117 354.504 43.655C356.757 41.055 357.884 37.6317 357.884 33.385V3.875H369.714V33.385C369.714 38.325 368.696 42.68 366.659 46.45C364.666 50.1767 361.827 53.0583 358.144 55.095C354.504 57.1317 350.279 58.15 345.469 58.15C340.659 58.15 336.412 57.1317 332.729 55.095C329.089 53.0583 326.251 50.1767 324.214 46.45C322.221 42.68 321.224 38.325 321.224 33.385V3.875ZM374.207 18.76H385.777V22.66C388.16 19.4533 391.713 17.85 396.437 17.85C399.383 17.85 401.983 18.5433 404.237 19.93C406.49 21.2733 408.223 23.2233 409.437 25.78C410.693 28.3367 411.322 31.3483 411.322 34.815V56.85H399.752V36.765C399.752 33.8617 399.167 31.6517 397.997 30.135C396.87 28.575 395.223 27.795 393.057 27.795C390.803 27.795 389.027 28.64 387.727 30.33C386.427 32.02 385.777 34.3383 385.777 37.285V56.85H374.207V18.76ZM421.033 0.364997C423.07 0.364997 424.76 1.03666 426.103 2.38C427.446 3.72333 428.118 5.41333 428.118 7.45C428.118 9.48667 427.446 11.1767 426.103 12.52C424.76 13.8633 423.07 14.535 421.033 14.535C418.996 14.535 417.306 13.8633 415.963 12.52C414.62 11.1767 413.948 9.48667 413.948 7.45C413.948 5.41333 414.62 3.72333 415.963 2.38C417.306 1.03666 418.996 0.364997 421.033 0.364997ZM426.818 56.98H415.248V18.76H426.818V56.98ZM469.167 18.76L454.542 56.85H442.517L427.892 18.76H440.437L448.952 43.59L457.467 18.76H469.167ZM486.324 57.76C482.511 57.76 479.087 56.8933 476.054 55.16C473.064 53.47 470.724 51.1083 469.034 48.075C467.344 45.0417 466.499 41.6183 466.499 37.805C466.499 33.9917 467.344 30.5683 469.034 27.535C470.724 24.5017 473.064 22.14 476.054 20.45C479.087 18.7167 482.511 17.85 486.324 17.85C490.137 17.85 493.539 18.7167 496.529 20.45C499.562 22.14 501.924 24.5017 503.614 27.535C505.304 30.5683 506.149 33.9917 506.149 37.805C506.149 39.0617 506.062 40.2967 505.889 41.51H478.004C478.437 43.72 479.391 45.4317 480.864 46.645C482.337 47.8583 484.157 48.465 486.324 48.465C487.971 48.465 489.422 48.205 490.679 47.685C491.979 47.1217 492.867 46.385 493.344 45.475H504.979C504.329 47.9017 503.116 50.025 501.339 51.845C499.562 53.7083 497.374 55.16 494.774 56.2C492.174 57.24 489.357 57.76 486.324 57.76ZM494.839 34.035C494.362 31.7383 493.387 30.005 491.914 28.835C490.441 27.6217 488.577 27.015 486.324 27.015C484.071 27.015 482.229 27.6217 480.799 28.835C479.369 30.005 478.416 31.7383 477.939 34.035H494.839ZM509.046 18.76H520.616V22.66C522.999 19.4533 526.553 17.85 531.276 17.85C533.356 17.85 535.024 18.0667 536.281 18.5L536.411 29.355C534.764 28.4883 532.793 28.055 530.496 28.055C527.419 28.055 524.993 28.8783 523.216 30.525C521.483 32.1717 520.616 34.4467 520.616 37.35V56.85H509.046V18.76ZM553.952 17.85C557.115 17.85 559.997 18.37 562.597 19.41C565.197 20.4067 567.277 21.8367 568.837 23.7C570.397 25.5633 571.242 27.73 571.372 30.2H560.192C560.019 29.03 559.325 28.12 558.112 27.47C556.942 26.7767 555.49 26.43 553.757 26.43C552.024 26.43 550.572 26.7117 549.402 27.275C548.275 27.795 547.712 28.4883 547.712 29.355C547.712 30.265 548.384 31.0017 549.727 31.565C551.07 32.1283 553.41 32.67 556.747 33.19C562.25 34.0133 566.172 35.3783 568.512 37.285C570.852 39.1917 572.022 41.8133 572.022 45.15C572.022 47.6633 571.22 49.8733 569.617 51.78C568.014 53.6867 565.847 55.16 563.117 56.2C560.387 57.24 557.397 57.76 554.147 57.76C550.854 57.76 547.864 57.2183 545.177 56.135C542.534 55.095 540.41 53.6 538.807 51.65C537.247 49.7 536.402 47.425 536.272 44.825H547.452C547.625 46.0383 548.362 47.035 549.662 47.815C550.962 48.5517 552.522 48.92 554.342 48.92C556.205 48.92 557.744 48.6167 558.957 48.01C560.17 47.4033 560.777 46.6667 560.777 45.8C560.777 44.89 560.062 44.1317 558.632 43.525C557.202 42.875 554.862 42.3117 551.612 41.835C546.629 41.0983 542.859 39.8417 540.302 38.065C537.789 36.2883 536.532 33.58 536.532 29.94C536.532 27.5133 537.29 25.39 538.807 23.57C540.367 21.75 542.469 20.3417 545.112 19.345C547.755 18.3483 550.702 17.85 553.952 17.85ZM580.727 0.364997C582.764 0.364997 584.454 1.03666 585.797 2.38C587.141 3.72333 587.812 5.41333 587.812 7.45C587.812 9.48667 587.141 11.1767 585.797 12.52C584.454 13.8633 582.764 14.535 580.727 14.535C578.691 14.535 577.001 13.8633 575.657 12.52C574.314 11.1767 573.642 9.48667 573.642 7.45C573.642 5.41333 574.314 3.72333 575.657 2.38C577.001 1.03666 578.691 0.364997 580.727 0.364997ZM586.512 56.98H574.942V18.76H586.512V56.98ZM614.626 28.705H607.086V56.85H595.516V28.705H587.976V18.76H595.516V7.45H607.086V18.76H614.626V28.705ZM654.541 18.76L632.636 72.71H621.261L628.151 55.81L613.136 18.76H625.941L634.196 42.29L642.516 18.76H654.541ZM659.205 62.05H650.56L652.9 45.215H663.235L659.205 62.05Z" fill="url(#paint0_linear_121_2228)"/>
<defs>
<linearGradient id="paint0_linear_121_2228" x1="-24.9533" y1="23.85" x2="380.528" y2="68.1472" gradientUnits="userSpaceOnUse">
<stop stop-color="#B800FF"/>
<stop offset="1" stop-color="#2EB1F7"/>
</linearGradient>
</defs>
</svg>
