<svg width="341" height="84" viewBox="0 0 341 84" fill="none" xmlns="http://www.w3.org/2000/svg">
<path d="M76.125 46.4H60.07V1.74999H76.125V46.4ZM51.615 15.905H16.465V29.965H37.555C41.2283 29.965 44.7433 29.7117 48.1 29.205C51.4567 28.6983 54.18 28.0017 56.27 27.115V40.32C54.18 41.2067 51.4567 41.9033 48.1 42.41C44.7433 42.9167 41.165 43.17 37.365 43.17H0.315001V2.7H51.615V15.905ZM39.835 47.54C51.1083 47.54 60.1017 48.9967 66.815 51.91C73.5283 54.76 76.885 59.3517 76.885 65.685C76.885 72.0183 73.5283 76.61 66.815 79.46C60.1017 82.3733 51.1083 83.83 39.835 83.83C28.5617 83.83 19.5683 82.3733 12.855 79.46C6.14167 76.61 2.785 72.0183 2.785 65.685C2.785 59.3517 6.14167 54.76 12.855 51.91C19.5683 48.9967 28.5617 47.54 39.835 47.54ZM39.835 60.365C33.945 60.365 29.1633 60.8083 25.49 61.695C21.88 62.5817 20.075 63.9117 20.075 65.685C20.075 67.5217 21.88 68.8833 25.49 69.77C29.1 70.5933 33.8817 71.005 39.835 71.005C45.7883 71.005 50.57 70.5933 54.18 69.77C57.79 68.8833 59.595 67.5217 59.595 65.685C59.595 63.9117 57.7583 62.5817 54.085 61.695C50.475 60.8083 45.725 60.365 39.835 60.365ZM161.807 46.4H145.752V1.74999H161.807V46.4ZM137.297 15.905H102.147V29.965H123.237C126.91 29.965 130.425 29.7117 133.782 29.205C137.139 28.6983 139.862 28.0017 141.952 27.115V40.32C139.862 41.2067 137.139 41.9033 133.782 42.41C130.425 42.9167 126.847 43.17 123.047 43.17H85.9968V2.7H137.297V15.905ZM125.517 47.54C136.79 47.54 145.784 48.9967 152.497 51.91C159.21 54.76 162.567 59.3517 162.567 65.685C162.567 72.0183 159.21 76.61 152.497 79.46C145.784 82.3733 136.79 83.83 125.517 83.83C114.244 83.83 105.25 82.3733 98.5368 79.46C91.8235 76.61 88.4668 72.0183 88.4668 65.685C88.4668 59.3517 91.8235 54.76 98.5368 51.91C105.25 48.9967 114.244 47.54 125.517 47.54ZM125.517 60.365C119.627 60.365 114.845 60.8083 111.172 61.695C107.562 62.5817 105.757 63.9117 105.757 65.685C105.757 67.5217 107.562 68.8833 111.172 69.77C114.782 70.5933 119.564 71.005 125.517 71.005C131.47 71.005 136.252 70.5933 139.862 69.77C143.472 68.8833 145.277 67.5217 145.277 65.685C145.277 63.9117 143.44 62.5817 139.767 61.695C136.157 60.8083 131.407 60.365 125.517 60.365ZM249.769 1.74999V82.88H234.759V46.78H228.014V81.455H213.194V2.13H228.014V31.58H234.759V1.74999H249.769ZM190.489 65.02C193.782 65.02 197.139 64.7983 200.559 64.355C204.042 63.8483 206.987 63.1517 209.394 62.265V76.135C207.114 77.085 204.074 77.8133 200.274 78.32C196.474 78.8267 192.737 79.08 189.064 79.08H170.444V3.65H205.879V17.71H185.929V65.02H190.489ZM309.421 19.325H253.941V7.07H273.511V0.324996H289.851V7.07H309.421V19.325ZM340.391 34.145H330.891V53.24H314.836V1.74999H330.891V18.565H340.391V34.145ZM281.681 53.24C274.587 53.24 268.666 51.8467 263.916 49.06C259.166 46.2733 256.791 42.3467 256.791 37.28C256.791 33.9233 257.899 31.0417 260.116 28.635C262.332 26.2283 265.341 24.4233 269.141 23.22C272.941 21.9533 277.121 21.32 281.681 21.32C286.241 21.32 290.389 21.9533 294.126 23.22C297.926 24.4233 300.934 26.2283 303.151 28.635C305.431 31.0417 306.571 33.9233 306.571 37.28C306.571 42.3467 304.196 46.2733 299.446 49.06C294.696 51.8467 288.774 53.24 281.681 53.24ZM281.681 32.72C278.767 32.72 276.424 33.1317 274.651 33.955C272.941 34.7783 272.086 35.8867 272.086 37.28C272.086 38.6733 272.941 39.7817 274.651 40.605C276.424 41.4283 278.767 41.84 281.681 41.84C284.594 41.84 286.906 41.4283 288.616 40.605C290.389 39.7817 291.276 38.6733 291.276 37.28C291.276 35.8867 290.389 34.7783 288.616 33.955C286.906 33.1317 284.594 32.72 281.681 32.72ZM258.881 56.09H330.891V83.83H314.551V69.485H258.881V56.09Z" fill="url(#paint0_linear_115_2226)"/>
<defs>
<linearGradient id="paint0_linear_115_2226" x1="170.203" y1="-22" x2="305.713" y2="6.58413" gradientUnits="userSpaceOnUse">
<stop stop-color="#B800FF"/>
<stop offset="1" stop-color="#2EB1F7"/>
</linearGradient>
</defs>
</svg>
